<mxfile host="app.diagrams.net" agent="Mozilla/5.0 (Windows NT 10.0; Win64; x64) AppleWebKit/537.36 (KHTML, like Gecko) Chrome/128.0.0.0 Safari/537.36" version="24.7.17">
  <diagram name="Page-1" id="RWTY-JCYhX8fXMqBgvHj">
    <mxGraphModel dx="1218" dy="2510" grid="1" gridSize="10" guides="1" tooltips="1" connect="1" arrows="1" fold="1" page="1" pageScale="1" pageWidth="850" pageHeight="1100" math="0" shadow="0">
      <root>
        <mxCell id="0" />
        <mxCell id="1" parent="0" />
        <mxCell id="1ZdOdHsy43xdTZlV5Tvy-51" style="edgeStyle=orthogonalEdgeStyle;rounded=0;orthogonalLoop=1;jettySize=auto;html=1;endArrow=none;endFill=0;" parent="1" source="1ZdOdHsy43xdTZlV5Tvy-1" target="1ZdOdHsy43xdTZlV5Tvy-12" edge="1">
          <mxGeometry relative="1" as="geometry" />
        </mxCell>
        <mxCell id="1ZdOdHsy43xdTZlV5Tvy-53" style="edgeStyle=orthogonalEdgeStyle;rounded=0;orthogonalLoop=1;jettySize=auto;html=1;entryX=0;entryY=0.5;entryDx=0;entryDy=0;endArrow=none;endFill=0;" parent="1" source="1ZdOdHsy43xdTZlV5Tvy-1" target="1ZdOdHsy43xdTZlV5Tvy-11" edge="1">
          <mxGeometry relative="1" as="geometry" />
        </mxCell>
        <mxCell id="1ZdOdHsy43xdTZlV5Tvy-55" style="edgeStyle=orthogonalEdgeStyle;rounded=0;orthogonalLoop=1;jettySize=auto;html=1;endArrow=none;endFill=0;" parent="1" source="1ZdOdHsy43xdTZlV5Tvy-1" target="1ZdOdHsy43xdTZlV5Tvy-46" edge="1">
          <mxGeometry relative="1" as="geometry">
            <Array as="points">
              <mxPoint x="200" y="440" />
              <mxPoint x="200" y="150" />
              <mxPoint x="530" y="150" />
            </Array>
          </mxGeometry>
        </mxCell>
        <mxCell id="HW91bJSBaKn1Zp2bjKoJ-1" style="edgeStyle=orthogonalEdgeStyle;rounded=0;orthogonalLoop=1;jettySize=auto;html=1;" edge="1" parent="1" source="1ZdOdHsy43xdTZlV5Tvy-1">
          <mxGeometry relative="1" as="geometry">
            <mxPoint x="115" y="110" as="targetPoint" />
          </mxGeometry>
        </mxCell>
        <mxCell id="HW91bJSBaKn1Zp2bjKoJ-2" style="edgeStyle=orthogonalEdgeStyle;rounded=0;orthogonalLoop=1;jettySize=auto;html=1;entryX=0;entryY=0.5;entryDx=0;entryDy=0;endArrow=none;endFill=0;" edge="1" parent="1" source="1ZdOdHsy43xdTZlV5Tvy-1" target="1ZdOdHsy43xdTZlV5Tvy-29">
          <mxGeometry relative="1" as="geometry" />
        </mxCell>
        <mxCell id="1ZdOdHsy43xdTZlV5Tvy-1" value="Usuário Logado" style="shape=umlActor;verticalLabelPosition=bottom;verticalAlign=top;html=1;outlineConnect=0;" parent="1" vertex="1">
          <mxGeometry x="100" y="410" width="30" height="60" as="geometry" />
        </mxCell>
        <mxCell id="1ZdOdHsy43xdTZlV5Tvy-49" style="edgeStyle=orthogonalEdgeStyle;rounded=0;orthogonalLoop=1;jettySize=auto;html=1;endArrow=none;endFill=0;" parent="1" source="1ZdOdHsy43xdTZlV5Tvy-4" target="1ZdOdHsy43xdTZlV5Tvy-8" edge="1">
          <mxGeometry relative="1" as="geometry" />
        </mxCell>
        <mxCell id="1ZdOdHsy43xdTZlV5Tvy-50" style="edgeStyle=orthogonalEdgeStyle;rounded=0;orthogonalLoop=1;jettySize=auto;html=1;endArrow=none;endFill=0;" parent="1" source="1ZdOdHsy43xdTZlV5Tvy-4" target="1ZdOdHsy43xdTZlV5Tvy-9" edge="1">
          <mxGeometry relative="1" as="geometry" />
        </mxCell>
        <mxCell id="1ZdOdHsy43xdTZlV5Tvy-4" value="Usuário" style="shape=umlActor;verticalLabelPosition=bottom;verticalAlign=top;html=1;outlineConnect=0;" parent="1" vertex="1">
          <mxGeometry x="100" y="10" width="30" height="60" as="geometry" />
        </mxCell>
        <mxCell id="1ZdOdHsy43xdTZlV5Tvy-28" style="edgeStyle=orthogonalEdgeStyle;rounded=0;orthogonalLoop=1;jettySize=auto;html=1;endArrow=none;endFill=0;" parent="1" source="1ZdOdHsy43xdTZlV5Tvy-6" target="1ZdOdHsy43xdTZlV5Tvy-23" edge="1">
          <mxGeometry relative="1" as="geometry" />
        </mxCell>
        <mxCell id="1ZdOdHsy43xdTZlV5Tvy-6" value="Respondente" style="shape=umlActor;verticalLabelPosition=bottom;verticalAlign=top;html=1;outlineConnect=0;" parent="1" vertex="1">
          <mxGeometry x="100" y="895" width="30" height="60" as="geometry" />
        </mxCell>
        <mxCell id="1ZdOdHsy43xdTZlV5Tvy-8" value="Registrar-se" style="ellipse;whiteSpace=wrap;html=1;" parent="1" vertex="1">
          <mxGeometry x="270" y="-40" width="120" height="60" as="geometry" />
        </mxCell>
        <mxCell id="1ZdOdHsy43xdTZlV5Tvy-9" value="Fazer login" style="ellipse;whiteSpace=wrap;html=1;" parent="1" vertex="1">
          <mxGeometry x="270" y="50" width="120" height="60" as="geometry" />
        </mxCell>
        <mxCell id="1ZdOdHsy43xdTZlV5Tvy-54" style="edgeStyle=orthogonalEdgeStyle;rounded=0;orthogonalLoop=1;jettySize=auto;html=1;entryX=0.362;entryY=0.983;entryDx=0;entryDy=0;dashed=1;entryPerimeter=0;exitX=0.357;exitY=-0.006;exitDx=0;exitDy=0;exitPerimeter=0;" parent="1" source="1ZdOdHsy43xdTZlV5Tvy-10" target="1ZdOdHsy43xdTZlV5Tvy-11" edge="1">
          <mxGeometry relative="1" as="geometry" />
        </mxCell>
        <mxCell id="1ZdOdHsy43xdTZlV5Tvy-10" value="Gerenciar&lt;div&gt;Formulario&lt;/div&gt;" style="ellipse;whiteSpace=wrap;html=1;" parent="1" vertex="1">
          <mxGeometry x="270" y="695" width="120" height="60" as="geometry" />
        </mxCell>
        <mxCell id="1ZdOdHsy43xdTZlV5Tvy-14" style="edgeStyle=orthogonalEdgeStyle;rounded=0;orthogonalLoop=1;jettySize=auto;html=1;endArrow=none;endFill=0;dashed=1;" parent="1" source="1ZdOdHsy43xdTZlV5Tvy-11" target="1ZdOdHsy43xdTZlV5Tvy-12" edge="1">
          <mxGeometry relative="1" as="geometry" />
        </mxCell>
        <mxCell id="1ZdOdHsy43xdTZlV5Tvy-11" value="Visualizar&lt;div&gt;formularios&lt;/div&gt;" style="ellipse;whiteSpace=wrap;html=1;" parent="1" vertex="1">
          <mxGeometry x="270" y="550" width="120" height="60" as="geometry" />
        </mxCell>
        <mxCell id="1ZdOdHsy43xdTZlV5Tvy-12" value="Criar formulário" style="ellipse;whiteSpace=wrap;html=1;" parent="1" vertex="1">
          <mxGeometry x="270" y="410" width="120" height="60" as="geometry" />
        </mxCell>
        <mxCell id="1ZdOdHsy43xdTZlV5Tvy-19" value="" style="edgeStyle=orthogonalEdgeStyle;rounded=0;orthogonalLoop=1;jettySize=auto;html=1;dashed=1;" parent="1" source="1ZdOdHsy43xdTZlV5Tvy-16" target="1ZdOdHsy43xdTZlV5Tvy-10" edge="1">
          <mxGeometry relative="1" as="geometry" />
        </mxCell>
        <mxCell id="1ZdOdHsy43xdTZlV5Tvy-16" value="Compartilhar" style="ellipse;whiteSpace=wrap;html=1;" parent="1" vertex="1">
          <mxGeometry x="480" y="695" width="120" height="60" as="geometry" />
        </mxCell>
        <mxCell id="1ZdOdHsy43xdTZlV5Tvy-20" style="edgeStyle=orthogonalEdgeStyle;rounded=0;orthogonalLoop=1;jettySize=auto;html=1;dashed=1;" parent="1" source="1ZdOdHsy43xdTZlV5Tvy-17" target="1ZdOdHsy43xdTZlV5Tvy-10" edge="1">
          <mxGeometry relative="1" as="geometry" />
        </mxCell>
        <mxCell id="1ZdOdHsy43xdTZlV5Tvy-17" value="Detalhes&lt;div&gt;da questao&lt;/div&gt;" style="ellipse;whiteSpace=wrap;html=1;" parent="1" vertex="1">
          <mxGeometry x="480" y="775" width="120" height="60" as="geometry" />
        </mxCell>
        <mxCell id="1ZdOdHsy43xdTZlV5Tvy-22" style="edgeStyle=orthogonalEdgeStyle;rounded=0;orthogonalLoop=1;jettySize=auto;html=1;dashed=1;" parent="1" source="1ZdOdHsy43xdTZlV5Tvy-21" target="1ZdOdHsy43xdTZlV5Tvy-10" edge="1">
          <mxGeometry relative="1" as="geometry" />
        </mxCell>
        <mxCell id="1ZdOdHsy43xdTZlV5Tvy-21" value="Editar formulario" style="ellipse;whiteSpace=wrap;html=1;" parent="1" vertex="1">
          <mxGeometry x="480" y="610" width="120" height="60" as="geometry" />
        </mxCell>
        <mxCell id="1ZdOdHsy43xdTZlV5Tvy-23" value="Acessar formulário" style="ellipse;whiteSpace=wrap;html=1;" parent="1" vertex="1">
          <mxGeometry x="270" y="895" width="120" height="60" as="geometry" />
        </mxCell>
        <mxCell id="1ZdOdHsy43xdTZlV5Tvy-27" value="" style="edgeStyle=orthogonalEdgeStyle;rounded=0;orthogonalLoop=1;jettySize=auto;html=1;dashed=1;" parent="1" source="1ZdOdHsy43xdTZlV5Tvy-24" target="1ZdOdHsy43xdTZlV5Tvy-23" edge="1">
          <mxGeometry relative="1" as="geometry" />
        </mxCell>
        <mxCell id="1ZdOdHsy43xdTZlV5Tvy-24" value="Responder questão" style="ellipse;whiteSpace=wrap;html=1;" parent="1" vertex="1">
          <mxGeometry x="480" y="895" width="120" height="60" as="geometry" />
        </mxCell>
        <mxCell id="1ZdOdHsy43xdTZlV5Tvy-26" value="" style="edgeStyle=orthogonalEdgeStyle;rounded=0;orthogonalLoop=1;jettySize=auto;html=1;dashed=1;" parent="1" source="1ZdOdHsy43xdTZlV5Tvy-25" target="1ZdOdHsy43xdTZlV5Tvy-24" edge="1">
          <mxGeometry relative="1" as="geometry" />
        </mxCell>
        <mxCell id="1ZdOdHsy43xdTZlV5Tvy-25" value="Enviar resposta" style="ellipse;whiteSpace=wrap;html=1;" parent="1" vertex="1">
          <mxGeometry x="680" y="895" width="120" height="60" as="geometry" />
        </mxCell>
        <mxCell id="1ZdOdHsy43xdTZlV5Tvy-29" value="Acessar a comunidade" style="ellipse;whiteSpace=wrap;html=1;" parent="1" vertex="1">
          <mxGeometry x="270" y="310" width="120" height="60" as="geometry" />
        </mxCell>
        <mxCell id="1ZdOdHsy43xdTZlV5Tvy-33" style="edgeStyle=orthogonalEdgeStyle;rounded=0;orthogonalLoop=1;jettySize=auto;html=1;dashed=1;" parent="1" source="1ZdOdHsy43xdTZlV5Tvy-30" target="1ZdOdHsy43xdTZlV5Tvy-29" edge="1">
          <mxGeometry relative="1" as="geometry" />
        </mxCell>
        <mxCell id="1ZdOdHsy43xdTZlV5Tvy-30" value="Questoes" style="ellipse;whiteSpace=wrap;html=1;" parent="1" vertex="1">
          <mxGeometry x="480" y="210" width="120" height="60" as="geometry" />
        </mxCell>
        <mxCell id="1ZdOdHsy43xdTZlV5Tvy-32" style="edgeStyle=orthogonalEdgeStyle;rounded=0;orthogonalLoop=1;jettySize=auto;html=1;dashed=1;" parent="1" source="1ZdOdHsy43xdTZlV5Tvy-31" target="1ZdOdHsy43xdTZlV5Tvy-29" edge="1">
          <mxGeometry relative="1" as="geometry" />
        </mxCell>
        <mxCell id="1ZdOdHsy43xdTZlV5Tvy-31" value="Formularios" style="ellipse;whiteSpace=wrap;html=1;" parent="1" vertex="1">
          <mxGeometry x="480" y="310" width="120" height="60" as="geometry" />
        </mxCell>
        <mxCell id="1ZdOdHsy43xdTZlV5Tvy-45" style="edgeStyle=orthogonalEdgeStyle;rounded=0;orthogonalLoop=1;jettySize=auto;html=1;dashed=1;" parent="1" source="1ZdOdHsy43xdTZlV5Tvy-34" target="1ZdOdHsy43xdTZlV5Tvy-21" edge="1">
          <mxGeometry relative="1" as="geometry" />
        </mxCell>
        <mxCell id="1ZdOdHsy43xdTZlV5Tvy-34" value="Editar opções" style="ellipse;whiteSpace=wrap;html=1;" parent="1" vertex="1">
          <mxGeometry x="680" y="610" width="120" height="60" as="geometry" />
        </mxCell>
        <mxCell id="1ZdOdHsy43xdTZlV5Tvy-40" style="edgeStyle=orthogonalEdgeStyle;rounded=0;orthogonalLoop=1;jettySize=auto;html=1;entryX=1;entryY=0.5;entryDx=0;entryDy=0;exitX=0.5;exitY=1;exitDx=0;exitDy=0;dashed=1;" parent="1" source="1ZdOdHsy43xdTZlV5Tvy-36" target="1ZdOdHsy43xdTZlV5Tvy-12" edge="1">
          <mxGeometry relative="1" as="geometry" />
        </mxCell>
        <mxCell id="1ZdOdHsy43xdTZlV5Tvy-43" style="edgeStyle=orthogonalEdgeStyle;rounded=0;orthogonalLoop=1;jettySize=auto;html=1;dashed=1;" parent="1" source="1ZdOdHsy43xdTZlV5Tvy-36" target="1ZdOdHsy43xdTZlV5Tvy-31" edge="1">
          <mxGeometry relative="1" as="geometry" />
        </mxCell>
        <mxCell id="1ZdOdHsy43xdTZlV5Tvy-36" value="Copiar formulario" style="ellipse;whiteSpace=wrap;html=1;" parent="1" vertex="1">
          <mxGeometry x="680" y="310" width="120" height="60" as="geometry" />
        </mxCell>
        <mxCell id="1ZdOdHsy43xdTZlV5Tvy-42" style="edgeStyle=orthogonalEdgeStyle;rounded=0;orthogonalLoop=1;jettySize=auto;html=1;dashed=1;" parent="1" source="1ZdOdHsy43xdTZlV5Tvy-38" target="1ZdOdHsy43xdTZlV5Tvy-21" edge="1">
          <mxGeometry relative="1" as="geometry">
            <Array as="points">
              <mxPoint x="840" y="240" />
              <mxPoint x="840" y="510" />
              <mxPoint x="540" y="510" />
            </Array>
          </mxGeometry>
        </mxCell>
        <mxCell id="1ZdOdHsy43xdTZlV5Tvy-44" style="edgeStyle=orthogonalEdgeStyle;rounded=0;orthogonalLoop=1;jettySize=auto;html=1;dashed=1;" parent="1" source="1ZdOdHsy43xdTZlV5Tvy-38" target="1ZdOdHsy43xdTZlV5Tvy-30" edge="1">
          <mxGeometry relative="1" as="geometry" />
        </mxCell>
        <mxCell id="1ZdOdHsy43xdTZlV5Tvy-38" value="Adicionar questão a outro formulario" style="ellipse;whiteSpace=wrap;html=1;" parent="1" vertex="1">
          <mxGeometry x="680" y="210" width="120" height="60" as="geometry" />
        </mxCell>
        <mxCell id="1ZdOdHsy43xdTZlV5Tvy-48" style="edgeStyle=orthogonalEdgeStyle;rounded=0;orthogonalLoop=1;jettySize=auto;html=1;dashed=1;" parent="1" source="1ZdOdHsy43xdTZlV5Tvy-46" target="1ZdOdHsy43xdTZlV5Tvy-9" edge="1">
          <mxGeometry relative="1" as="geometry" />
        </mxCell>
        <mxCell id="1ZdOdHsy43xdTZlV5Tvy-46" value="Alterar Senha" style="ellipse;whiteSpace=wrap;html=1;" parent="1" vertex="1">
          <mxGeometry x="470" y="50" width="120" height="60" as="geometry" />
        </mxCell>
        <mxCell id="1ZdOdHsy43xdTZlV5Tvy-56" value="&amp;lt;&amp;lt;extend&amp;gt;&amp;gt;" style="text;html=1;align=center;verticalAlign=middle;resizable=0;points=[];autosize=1;strokeColor=none;fillColor=none;" parent="1" vertex="1">
          <mxGeometry x="390" y="935" width="90" height="30" as="geometry" />
        </mxCell>
        <mxCell id="1ZdOdHsy43xdTZlV5Tvy-57" value="&amp;lt;&amp;lt;include&amp;gt;&amp;gt;" style="text;html=1;align=center;verticalAlign=middle;resizable=0;points=[];autosize=1;strokeColor=none;fillColor=none;" parent="1" vertex="1">
          <mxGeometry x="600" y="935" width="90" height="30" as="geometry" />
        </mxCell>
        <mxCell id="1ZdOdHsy43xdTZlV5Tvy-58" value="&amp;lt;&amp;lt;extend&amp;gt;&amp;gt;" style="text;html=1;align=center;verticalAlign=middle;resizable=0;points=[];autosize=1;strokeColor=none;fillColor=none;" parent="1" vertex="1">
          <mxGeometry x="370" y="805" width="90" height="30" as="geometry" />
        </mxCell>
        <mxCell id="1ZdOdHsy43xdTZlV5Tvy-59" value="&amp;lt;&amp;lt;extend&amp;gt;&amp;gt;" style="text;html=1;align=center;verticalAlign=middle;resizable=0;points=[];autosize=1;strokeColor=none;fillColor=none;" parent="1" vertex="1">
          <mxGeometry x="395" y="725" width="90" height="30" as="geometry" />
        </mxCell>
        <mxCell id="1ZdOdHsy43xdTZlV5Tvy-60" value="&amp;lt;&amp;lt;extend&amp;gt;&amp;gt;" style="text;html=1;align=center;verticalAlign=middle;resizable=0;points=[];autosize=1;strokeColor=none;fillColor=none;" parent="1" vertex="1">
          <mxGeometry x="370" y="640" width="90" height="30" as="geometry" />
        </mxCell>
        <mxCell id="1ZdOdHsy43xdTZlV5Tvy-61" value="&amp;lt;&amp;lt;extend&amp;gt;&amp;gt;" style="text;html=1;align=center;verticalAlign=middle;resizable=0;points=[];autosize=1;strokeColor=none;fillColor=none;" parent="1" vertex="1">
          <mxGeometry x="600" y="640" width="90" height="30" as="geometry" />
        </mxCell>
        <mxCell id="1ZdOdHsy43xdTZlV5Tvy-62" value="&amp;lt;&amp;lt;extend&amp;gt;&amp;gt;" style="text;html=1;align=center;verticalAlign=middle;resizable=0;points=[];autosize=1;strokeColor=none;fillColor=none;" parent="1" vertex="1">
          <mxGeometry x="540" y="440" width="90" height="30" as="geometry" />
        </mxCell>
        <mxCell id="1ZdOdHsy43xdTZlV5Tvy-63" value="&amp;lt;&amp;lt;extend&amp;gt;&amp;gt;" style="text;html=1;align=center;verticalAlign=middle;resizable=0;points=[];autosize=1;strokeColor=none;fillColor=none;" parent="1" vertex="1">
          <mxGeometry x="660" y="510" width="90" height="30" as="geometry" />
        </mxCell>
        <mxCell id="1ZdOdHsy43xdTZlV5Tvy-65" value="&amp;lt;&amp;lt;extend&amp;gt;&amp;gt;" style="text;html=1;align=center;verticalAlign=middle;resizable=0;points=[];autosize=1;strokeColor=none;fillColor=none;" parent="1" vertex="1">
          <mxGeometry x="360" y="240" width="90" height="30" as="geometry" />
        </mxCell>
        <mxCell id="1ZdOdHsy43xdTZlV5Tvy-66" value="&amp;lt;&amp;lt;extend&amp;gt;&amp;gt;" style="text;html=1;align=center;verticalAlign=middle;resizable=0;points=[];autosize=1;strokeColor=none;fillColor=none;" parent="1" vertex="1">
          <mxGeometry x="395" y="340" width="90" height="30" as="geometry" />
        </mxCell>
        <mxCell id="1ZdOdHsy43xdTZlV5Tvy-67" value="&amp;lt;&amp;lt;extend&amp;gt;&amp;gt;" style="text;html=1;align=center;verticalAlign=middle;resizable=0;points=[];autosize=1;strokeColor=none;fillColor=none;" parent="1" vertex="1">
          <mxGeometry x="590" y="340" width="90" height="30" as="geometry" />
        </mxCell>
        <mxCell id="1ZdOdHsy43xdTZlV5Tvy-68" value="&amp;lt;&amp;lt;extend&amp;gt;&amp;gt;" style="text;html=1;align=center;verticalAlign=middle;resizable=0;points=[];autosize=1;strokeColor=none;fillColor=none;" parent="1" vertex="1">
          <mxGeometry x="600" y="240" width="90" height="30" as="geometry" />
        </mxCell>
        <mxCell id="1ZdOdHsy43xdTZlV5Tvy-69" value="&amp;lt;&amp;lt;extend&amp;gt;&amp;gt;" style="text;html=1;align=center;verticalAlign=middle;resizable=0;points=[];autosize=1;strokeColor=none;fillColor=none;" parent="1" vertex="1">
          <mxGeometry x="390" y="80" width="90" height="30" as="geometry" />
        </mxCell>
        <mxCell id="1ZdOdHsy43xdTZlV5Tvy-70" value="&amp;lt;&amp;lt;extend&amp;gt;&amp;gt;" style="text;html=1;align=center;verticalAlign=middle;resizable=0;points=[];autosize=1;strokeColor=none;fillColor=none;" parent="1" vertex="1">
          <mxGeometry x="330" y="490" width="90" height="30" as="geometry" />
        </mxCell>
        <mxCell id="1ZdOdHsy43xdTZlV5Tvy-71" value="" style="shape=stencil(fZbdcgIhDIWfZm8zQAg/17Z9j85U606tdqz9e/tmZ0c0uJ47xP0I5JwEBl59bp8/1kNwn6fj4W39M76ctgM/DCGM++36OJ50NPDjwKvN4bh+PR6+9i/z74/n6ctp9H74nlb4nbmSKZeJCu5vngmZ6jzzNAO7cX8FVKEsBuBKrgKg9oAE8gkCbLeUhEoEQKSUDZDLeWYRKIl8MEDRmHwfyBrBG6Amyu4+kDxxMoB3jhwgYu7TVAsVkFcWCs4CTBEoF4RctKeOxHIf8IXYpikHikAIf+MNUW94AGSSaoAoFIE3AlOyeWU+p2E5S9yfQZcQILVuQOwZdJNoS9Ls3wA5u2XZTIHECqeJ9kDpSaauRiNVcAY1QhdBzeLBli5WazpkSsBLV25uRaqWRyFawTQzRRIQYirJzq5atkBqLfouwqUxLBepthWb10vrWZY6UOAeyKCCtDV625mm9gmUC4Wc3VLJMMIE1BsA2FW9JraVlQB7n3c9oMKhCLEvIM1zBPZ25/umNQ1tVEC2G+fFCC8g398O2hNQuQlVu752DBfA+q0ptnqO5JFmeuIuo9DY7KjY71UxdJV4EntifPWorW++R/dC4t7V3DlIB5cHx2bc7eb3yvX//QNFp+bHDT/+Aw==);lineShape=1;strokeColor=default;" parent="1" vertex="1">
          <mxGeometry x="1049.167245517206" y="33.59769777834936" width="5.840674715144019" height="5.831545270446554" as="geometry" />
        </mxCell>
      </root>
    </mxGraphModel>
  </diagram>
</mxfile>
